<?xml version="1.0" encoding="utf-8"?>
<!-- Generator: Adobe Illustrator 15.1.0, SVG Export Plug-In . SVG Version: 6.00 Build 0)  -->
<!DOCTYPE svg PUBLIC "-//W3C//DTD SVG 1.1//EN" "http://www.w3.org/Graphics/SVG/1.1/DTD/svg11.dtd">
<svg version="1.1" id="Layer_1" xmlns="http://www.w3.org/2000/svg" xmlns:xlink="http://www.w3.org/1999/xlink" x="0px" y="0px"
	 width="48px" height="48px" viewBox="0 0 48 48" enable-background="new 0 0 48 48" xml:space="preserve">
<circle fill="#0288D1" cx="24" cy="24" r="20"/>
<path fill="#FFFFFF" stroke="#FFFFFF" stroke-width="0.5" stroke-miterlimit="10" d="M14.958,14.881l2.898-2.416
	c0,0,1.34-1.347,1.739,0.884l1.738,4.326c0,0,0.903,1.538-0.263,2.151l-1.31,1.099c0,0,1.886,5.855,6.72,8.21l1.071-1.213
	c0,0,1.362-0.841,2.73,0.334l3.241,2.327c0,0,1.884,1.07-0.294,2.399l-2.629,2.28c0,0-0.577,1.273-2.894,0.318
	c0,0-12.381-3.108-14.129-19.022C13.577,16.56,13.375,16.2,14.958,14.881z"/>
</svg>
