<?xml version="1.0" encoding="utf-8"?>
<!-- Generator: Adobe Illustrator 15.1.0, SVG Export Plug-In . SVG Version: 6.00 Build 0)  -->
<!DOCTYPE svg PUBLIC "-//W3C//DTD SVG 1.1//EN" "http://www.w3.org/Graphics/SVG/1.1/DTD/svg11.dtd">
<svg version="1.1" xmlns="http://www.w3.org/2000/svg" xmlns:xlink="http://www.w3.org/1999/xlink" x="0px" y="0px" width="250px"
	 height="150px" viewBox="0 0 250 150" enable-background="new 0 0 250 150" xml:space="preserve">
<g id="Layer_1">
</g>
<g id="Layer_2">
	<path fill="#FFFFFF" d="M46.406,57.812c0,0-1.813-24.263,20.635-32.653c0,0,23.129-13.832,46.485,6.803
		c0,0,15.873-28.118,50.793-26.304c0,0,50.341-0.454,53.742,58.276c0,0,19.938,14.059,19.938,39.002c0,0,4.551,28.8-36.719,42.857
		H49.581c0,0-36.581-8.618-36.581-44.899C13,100.895,10.125,71.192,46.406,57.812z"/>
	<g>
		<path fill="#1C75BC" stroke="#00AEEF" stroke-width="2" stroke-miterlimit="10" d="M98.445,102.007l8.718-0.763
			c0.413,3.495,1.374,6.36,2.882,8.6c1.508,2.239,3.851,4.05,7.027,5.432c3.176,1.382,6.749,2.071,10.719,2.071
			c3.524,0,6.637-0.523,9.336-1.571c2.7-1.048,4.71-2.484,6.027-4.311s1.977-3.82,1.977-5.979c0-2.191-0.635-4.106-1.905-5.741
			s-3.367-3.009-6.288-4.12c-1.875-0.731-6.018-1.866-12.435-3.407c-6.416-1.541-10.91-2.992-13.482-4.358
			c-3.335-1.746-5.82-3.915-7.456-6.504c-1.636-2.589-2.453-5.486-2.453-8.693c0-3.525,1-6.82,3.001-9.886
			c2.001-3.064,4.923-5.391,8.766-6.979c3.843-1.588,8.115-2.382,12.816-2.382c5.176,0,9.741,0.833,13.695,2.501
			c3.954,1.668,6.995,4.121,9.123,7.36c2.128,3.241,3.272,6.908,3.43,11.005l-8.86,0.667c-0.478-4.415-2.088-7.75-4.836-10.004
			c-2.747-2.255-6.804-3.382-12.173-3.382c-5.589,0-9.662,1.024-12.219,3.073c-2.557,2.048-3.834,4.517-3.834,7.408
			c0,2.508,0.904,4.573,2.715,6.193c1.779,1.619,6.424,3.278,13.934,4.978c7.513,1.699,12.665,3.184,15.46,4.455
			c4.065,1.873,7.067,4.247,9.005,7.122c1.937,2.874,2.905,6.186,2.905,9.935c0,3.714-1.063,7.216-3.191,10.503
			c-2.128,3.288-5.186,5.844-9.172,7.671c-3.985,1.825-8.472,2.738-13.457,2.738c-6.32,0-11.617-0.921-15.889-2.763
			c-4.271-1.842-7.622-4.613-10.052-8.313C99.851,110.859,98.572,106.677,98.445,102.007z"/>
	</g>
</g>
</svg>
